<?xml version="1.0" standalone="no"?>
<!DOCTYPE svg PUBLIC "-//W3C//DTD SVG 20010904//EN"
 "http://www.w3.org/TR/2001/REC-SVG-20010904/DTD/svg10.dtd">
<svg version="1.0" xmlns="http://www.w3.org/2000/svg"
 width="700.000000pt" height="700.000000pt" viewBox="0 0 700.000000 700.000000"
 preserveAspectRatio="xMidYMid meet">
<metadata>
Created by potrace 1.14, written by Peter Selinger 2001-2017
</metadata>
<g transform="translate(0.000000,700.000000) scale(0.100000,-0.100000)"
fill="#000000" stroke="none">
<path d="M2927 6303 c-112 -180 -1762 -3044 -1765 -3066 -9 -59 -36 -57 629
-57 335 0 609 -2 609 -5 0 -3 -137 -554 -305 -1225 -168 -671 -305 -1229 -305
-1240 0 -27 45 -55 70 -44 37 18 3990 3799 3990 3817 0 10 -5 27 -10 38 -10
19 -30 19 -775 19 -421 0 -765 3 -765 8 0 4 303 390 673 858 371 468 677 859
681 869 4 10 0 28 -9 41 l-15 24 -1340 0 -1340 0 -23 -37z m1808 -445 c-8 -13
-327 -417 -708 -898 l-693 -875 717 -5 717 -5 -1086 -1037 c-598 -570 -1088
-1035 -1090 -1033 -1 1 89 370 201 819 l205 816 -537 2 -537 3 637 1100 c351
605 642 1108 648 1118 11 16 58 17 776 17 l765 0 -15 -22z"/>
</g>
</svg>
